<?xml version="1.0" standalone="no"?>
<!DOCTYPE svg PUBLIC "-//W3C//DTD SVG 20010904//EN"
 "http://www.w3.org/TR/2001/REC-SVG-20010904/DTD/svg10.dtd">
<svg version="1.0" xmlns="http://www.w3.org/2000/svg"
 width="538.000000pt" height="476.000000pt" viewBox="0 0 538.000000 476.000000"
 preserveAspectRatio="xMidYMid meet">
<metadata>
Created by potrace 1.16, written by Peter Selinger 2001-2019
</metadata>
<g transform="translate(0.000000,476.000000) scale(0.100000,-0.100000)"
fill="#000000" stroke="none">
<path d="M2210 4293 c0 -6 -25 -13 -55 -15 -97 -8 -95 -3 -95 -280 l0 -238
-255 0 -255 0 0 190 c0 211 -6 238 -64 278 -30 21 -43 22 -217 22 -165 0 -187
-2 -216 -20 -68 -41 -68 -41 -71 -487 -3 -419 0 -457 39 -507 37 -47 76 -56
248 -56 143 0 161 2 201 23 74 37 80 60 80 285 l0 192 253 -2 252 -3 3 -105
c3 -124 12 -140 78 -140 64 0 74 -7 74 -52 0 -31 -6 -44 -30 -65 -22 -18 -30
-33 -30 -58 0 -43 167 -534 191 -561 18 -19 19 -49 19 -695 l-1 -674 -69 -50
c-38 -27 -73 -60 -79 -73 -6 -13 -11 -52 -11 -87 l0 -65 -345 0 -345 0 0 193
c0 211 -6 240 -63 281 -26 19 -42 21 -200 21 -163 0 -174 -1 -204 -23 -62 -44
-64 -60 -61 -527 3 -457 3 -456 61 -499 26 -19 42 -21 202 -21 160 0 176 2
202 21 57 41 63 70 63 282 l0 192 345 0 345 0 0 -40 c0 -79 33 -110 115 -110
l44 0 3 -136 c3 -120 5 -138 21 -148 15 -9 22 -7 38 13 16 20 19 39 19 147 l0
124 50 0 c71 0 100 29 100 100 l0 50 325 0 325 0 0 -192 c0 -212 6 -241 63
-282 26 -19 45 -21 190 -24 192 -3 218 5 255 78 l23 45 -3 425 c-4 558 13 525
-264 525 -159 0 -175 -2 -201 -21 -57 -41 -63 -70 -63 -281 l0 -193 -325 0
-325 0 0 69 c0 38 -3 76 -6 85 -3 9 -37 39 -75 67 l-69 51 0 684 c0 394 4 684
9 684 12 0 27 39 122 319 74 222 80 244 69 272 -7 16 -21 34 -32 40 -16 8 -18
19 -16 62 l3 52 52 3 c78 5 93 28 93 148 l0 94 250 0 250 0 0 -192 c0 -212 6
-241 63 -282 26 -19 45 -21 190 -24 179 -3 210 4 251 61 20 28 21 42 24 455 4
583 19 552 -269 552 -166 0 -178 -1 -204 -22 -49 -38 -55 -70 -55 -278 l0
-190 -250 0 -250 0 0 228 c0 125 -3 237 -6 250 -13 47 -51 55 -296 60 -150 3
-228 1 -228 -5z"/>
</g>
</svg>
